<svg xmlns="http://www.w3.org/2000/svg" xmlns:xlink="http://www.w3.org/1999/xlink" id="圖層_1" x="0" y="0" version="1.1" viewBox="0 0 80 80" xml:space="preserve" style="enable-background:new 0 0 80 80"><style type="text/css">.st0{fill:#fff}.st1{fill:url(#SVGID_1_)}.st2{fill:url(#SVGID_2_)}</style><rect width="80" height="80" class="st0"/><g><linearGradient id="SVGID_1_" x1="8.197" x2="12.091" y1="78.022" y2="74.754" gradientUnits="userSpaceOnUse"><stop offset=".184" style="stop-color:#e6ad00"/><stop offset=".254" style="stop-color:#f1d034"/><stop offset=".338" style="stop-color:#f7e451"/><stop offset=".428" style="stop-color:#fcf468"/><stop offset=".517" style="stop-color:#ffffbd"/><stop offset=".597" style="stop-color:#fcf468"/><stop offset=".692" style="stop-color:#f7e451"/><stop offset=".766" style="stop-color:#f1d135"/><stop offset=".881" style="stop-color:#e6ad00"/></linearGradient><path d="M10.2,72.5c-2,3.1-1.6,5.3-1.6,5.3c0.2,2.1,1.9,1.7,1.9,1.7c1.9-0.2,1.5-2.3,1.5-2.3 C11.9,75.5,11.3,73.8,10.2,72.5z M9.8,78.4c0,0-0.7-0.2-0.2-1.3c0.1-0.3,0.2-0.5,0.4-0.7c0,0.4,0,0.9,0.2,1.3 C10.1,77.7,10.4,78.3,9.8,78.4z" class="st1"/><linearGradient id="SVGID_2_" x1="3.109" x2="75.058" y1="63.307" y2="2.934" gradientUnits="userSpaceOnUse"><stop offset=".184" style="stop-color:#e6ad00"/><stop offset=".254" style="stop-color:#f1d034"/><stop offset=".338" style="stop-color:#f7e451"/><stop offset=".428" style="stop-color:#fcf468"/><stop offset=".517" style="stop-color:#ffffbd"/><stop offset=".597" style="stop-color:#fcf468"/><stop offset=".692" style="stop-color:#f7e451"/><stop offset=".766" style="stop-color:#f1d135"/><stop offset=".881" style="stop-color:#e6ad00"/></linearGradient><path d="M35.5,15.5c-1.9,1.7-3.7,3.7-5.3,5.7c-4.8,6.3-8.2,13.4-10.2,21c-0.6,2.1-1,4.2-1.3,6.3 c-0.5-0.2-0.8-2.1-0.8-2.1c-2.3,2.8-1.9,9-1.9,9c-1.6,0.2-3,1.2-3.8,2.5c1.7-0.1,3.5,0.1,5.2,0.4c0.3,0.1,0.3,0.1,0.3,0.1 c-3.4,4-7.8,13-7.8,13l7.1-5.3l3.2-6.5c1.4,1,2.8,4.3,2.8,4.3c0.6-1.3,1-2.7,1-4.1c8.3-0.5,10.3-4,10.3-4l-1.5-0.5 c7.6-2.5,14.4-7.1,19.6-13.2c4.9-5.7,8.4-12.5,10.2-19.8c-0.5-0.5-1.2-1-1.9-1.2L60.3,21c1.1-0.3,2.2-0.3,3.3-0.2 c2-9.6,9.5-20.2,9.5-20.2C52.7-3,35.5,15.5,35.5,15.5z M14.8,66.5l-2.2,1.7c4.8-8.3,8.1-11.9,8.1-11.9C18.5,59.6,16.5,63,14.8,66.5 z M46.4,21.2c-6.4,6.4-12.2,13.5-17.2,21c-2.9,4.3-5.5,8.8-7.8,13.4c2-4.6,4.3-9.1,6.9-13.4c4.5-7.5,9.7-14.6,15.7-21 c7.2-7.6,16-14.8,26.6-19.3C70.6,1.9,59.3,8.2,46.4,21.2z" class="st2"/></g></svg>